<svg width="720" height="820" viewBox="0 0 720 820" fill="none" xmlns="http://www.w3.org/2000/svg">
  <rect width="720" height="820" rx="72" fill="url(#bg)"/>
  <circle cx="360" cy="210" r="160" fill="url(#glow)" fill-opacity="0.75"/>
  <path d="M307 172H413V264C413 290 391 312 365 312H355C329 312 307 290 307 264V172Z" fill="url(#cap)"/>
  <rect x="242" y="284" width="236" height="338" rx="54" fill="url(#glass)" stroke="#FFE5B2" stroke-opacity="0.45" stroke-width="4"/>
  <path d="M286 332C286 304 308 282 336 282H384C412 282 434 304 434 332V574C434 602 412 624 384 624H336C308 624 286 602 286 574V332Z" fill="url(#juice)"/>
  <path d="M202 594C257 534 301 484 334 414C345 477 317 546 252 648C286 630 320 620 360 616C400 620 434 630 468 648C403 546 375 477 386 414C419 484 463 534 518 594C495 560 484 525 482 490C455 523 423 546 387 558C377 503 368 455 360 414C352 455 343 503 333 558C297 546 265 523 238 490C236 525 225 560 202 594Z" fill="url(#phoenix)" fill-opacity="0.94"/>
  <text x="360" y="682" text-anchor="middle" fill="#FFF0D3" font-family="Georgia, serif" font-size="38" letter-spacing="6">EMBER CROWN</text>
  <text x="360" y="724" text-anchor="middle" fill="#E5C6AE" font-family="Segoe UI, sans-serif" font-size="20" letter-spacing="4">HOUSE OF PHOENIX</text>
  <defs>
    <linearGradient id="bg" x1="54" y1="34" x2="641" y2="784" gradientUnits="userSpaceOnUse">
      <stop stop-color="#2A1612"/>
      <stop offset="1" stop-color="#140C0A"/>
    </linearGradient>
    <radialGradient id="glow" cx="0" cy="0" r="1" gradientUnits="userSpaceOnUse" gradientTransform="translate(360 210) rotate(90) scale(160)">
      <stop stop-color="#FFCC6E"/>
      <stop offset="1" stop-color="#FFCC6E" stop-opacity="0"/>
    </radialGradient>
    <linearGradient id="cap" x1="360" y1="172" x2="360" y2="312" gradientUnits="userSpaceOnUse">
      <stop stop-color="#FFE6B6"/>
      <stop offset="1" stop-color="#C87E33"/>
    </linearGradient>
    <linearGradient id="glass" x1="360" y1="284" x2="360" y2="622" gradientUnits="userSpaceOnUse">
      <stop stop-color="#3D271F"/>
      <stop offset="1" stop-color="#231410"/>
    </linearGradient>
    <linearGradient id="juice" x1="360" y1="282" x2="360" y2="624" gradientUnits="userSpaceOnUse">
      <stop stop-color="#FFB24D"/>
      <stop offset="1" stop-color="#A13427"/>
    </linearGradient>
    <linearGradient id="phoenix" x1="360" y1="414" x2="360" y2="648" gradientUnits="userSpaceOnUse">
      <stop stop-color="#FFE39E"/>
      <stop offset="0.45" stop-color="#FF8B49"/>
      <stop offset="1" stop-color="#7A261D"/>
    </linearGradient>
  </defs>
</svg>
