<svg width="720" height="820" viewBox="0 0 720 820" fill="none" xmlns="http://www.w3.org/2000/svg">
  <rect width="720" height="820" rx="72" fill="url(#bg)"/>
  <circle cx="360" cy="190" r="170" fill="url(#halo)" fill-opacity="0.72"/>
  <path d="M304 166H416V258C416 286 393 309 365 309H355C327 309 304 286 304 258V166Z" fill="url(#cap)"/>
  <rect x="248" y="282" width="224" height="338" rx="56" fill="url(#glass)" stroke="#E7D9F1" stroke-opacity="0.32" stroke-width="4"/>
  <path d="M292 330C292 304 313 283 339 283H381C407 283 428 304 428 330V575C428 601 407 622 381 622H339C313 622 292 601 292 575V330Z" fill="url(#juice)"/>
  <path d="M219 584C270 543 312 490 344 421C351 467 333 528 291 618C318 604 341 596 360 593C379 596 402 604 429 618C387 528 369 467 376 421C408 490 450 543 501 584C471 546 454 515 451 484C425 512 397 531 367 542C365 499 363 459 360 421C357 459 355 499 353 542C323 531 295 512 269 484C266 515 249 546 219 584Z" fill="url(#bird)" fill-opacity="0.92"/>
  <text x="360" y="682" text-anchor="middle" fill="#F4EAFB" font-family="Georgia, serif" font-size="36" letter-spacing="5">NOCTURNE PLUME</text>
  <text x="360" y="724" text-anchor="middle" fill="#D8C8E3" font-family="Segoe UI, sans-serif" font-size="20" letter-spacing="4">HOUSE OF PHOENIX</text>
  <defs>
    <linearGradient id="bg" x1="63" y1="29" x2="652" y2="787" gradientUnits="userSpaceOnUse">
      <stop stop-color="#181018"/>
      <stop offset="1" stop-color="#0F0A12"/>
    </linearGradient>
    <radialGradient id="halo" cx="0" cy="0" r="1" gradientUnits="userSpaceOnUse" gradientTransform="translate(360 190) rotate(90) scale(170)">
      <stop stop-color="#B999D0"/>
      <stop offset="1" stop-color="#B999D0" stop-opacity="0"/>
    </radialGradient>
    <linearGradient id="cap" x1="360" y1="166" x2="360" y2="309" gradientUnits="userSpaceOnUse">
      <stop stop-color="#F9E9FF"/>
      <stop offset="1" stop-color="#8E5E91"/>
    </linearGradient>
    <linearGradient id="glass" x1="360" y1="282" x2="360" y2="620" gradientUnits="userSpaceOnUse">
      <stop stop-color="#281C2B"/>
      <stop offset="1" stop-color="#151019"/>
    </linearGradient>
    <linearGradient id="juice" x1="360" y1="283" x2="360" y2="622" gradientUnits="userSpaceOnUse">
      <stop stop-color="#B46CB1"/>
      <stop offset="1" stop-color="#4F1E3E"/>
    </linearGradient>
    <linearGradient id="bird" x1="360" y1="421" x2="360" y2="618" gradientUnits="userSpaceOnUse">
      <stop stop-color="#F5D6FF"/>
      <stop offset="0.52" stop-color="#BE69AC"/>
      <stop offset="1" stop-color="#4D1B3C"/>
    </linearGradient>
  </defs>
</svg>
