<svg width="720" height="820" viewBox="0 0 720 820" fill="none" xmlns="http://www.w3.org/2000/svg">
  <rect width="720" height="820" rx="72" fill="url(#bg)"/>
  <circle cx="360" cy="170" r="170" fill="url(#halo)" fill-opacity="0.76"/>
  <path d="M300 164H420V256C420 286 396 310 366 310H354C324 310 300 286 300 256V164Z" fill="url(#cap)"/>
  <rect x="246" y="282" width="228" height="334" rx="56" fill="url(#glass)" stroke="#FDE6B5" stroke-opacity="0.34" stroke-width="4"/>
  <path d="M292 330C292 304 313 283 339 283H381C407 283 428 304 428 330V575C428 601 407 622 381 622H339C313 622 292 601 292 575V330Z" fill="url(#juice)"/>
  <path d="M224 564C273 532 316 482 346 418C352 463 332 523 286 611C314 596 339 587 360 583C381 587 406 596 434 611C388 523 368 463 374 418C404 482 447 532 496 564C469 534 454 506 451 478C424 504 396 522 367 533C365 495 362 457 360 418C358 457 355 495 353 533C324 522 296 504 269 478C266 506 251 534 224 564Z" fill="url(#sunbird)" fill-opacity="0.94"/>
  <text x="360" y="682" text-anchor="middle" fill="#FFF2D6" font-family="Georgia, serif" font-size="38" letter-spacing="6">SOLAR VEIL</text>
  <text x="360" y="724" text-anchor="middle" fill="#E5D0AE" font-family="Segoe UI, sans-serif" font-size="20" letter-spacing="4">HOUSE OF PHOENIX</text>
  <defs>
    <linearGradient id="bg" x1="59" y1="31" x2="654" y2="787" gradientUnits="userSpaceOnUse">
      <stop stop-color="#22140E"/>
      <stop offset="1" stop-color="#120C09"/>
    </linearGradient>
    <radialGradient id="halo" cx="0" cy="0" r="1" gradientUnits="userSpaceOnUse" gradientTransform="translate(360 170) rotate(90) scale(170)">
      <stop stop-color="#FFE7A7"/>
      <stop offset="1" stop-color="#FFE7A7" stop-opacity="0"/>
    </radialGradient>
    <linearGradient id="cap" x1="360" y1="164" x2="360" y2="310" gradientUnits="userSpaceOnUse">
      <stop stop-color="#FFF1C7"/>
      <stop offset="1" stop-color="#DCA04A"/>
    </linearGradient>
    <linearGradient id="glass" x1="360" y1="282" x2="360" y2="616" gradientUnits="userSpaceOnUse">
      <stop stop-color="#352219"/>
      <stop offset="1" stop-color="#1F130F"/>
    </linearGradient>
    <linearGradient id="juice" x1="360" y1="283" x2="360" y2="622" gradientUnits="userSpaceOnUse">
      <stop stop-color="#FFE18B"/>
      <stop offset="1" stop-color="#C65B2B"/>
    </linearGradient>
    <linearGradient id="sunbird" x1="360" y1="418" x2="360" y2="611" gradientUnits="userSpaceOnUse">
      <stop stop-color="#FFF0BF"/>
      <stop offset="0.52" stop-color="#FFB657"/>
      <stop offset="1" stop-color="#A13A22"/>
    </linearGradient>
  </defs>
</svg>
